<svg xmlns="http://www.w3.org/2000/svg" viewBox="0 0 512 512"><path d="M229.574 453.023l-97.217-.747c-10.937-.085-19.735-9.018-19.65-19.955l.593-77.007c.083-10.937 9.018-19.735 19.955-19.65l97.217.749c10.937.083 19.735 9.018 19.65 19.955l-.593 77.007c-.083 10.934-9.019 19.732-19.955 19.648z" fill="#707070"/><path d="M108.743 0C82.483 0 61.829 22.433 63.99 48.603l16.917 204.739.001.015 10.625 98.439c.54 21.466 18.087 38.845 39.716 39.011l93.102.716c21.631.166 39.442-16.938 40.312-38.396L295.86 49.494C298.58 23.018 277.805 0 251.19 0H108.743z" fill="#ff8546"/><path d="M251.19 0h-72.256v391.173l45.418.35c21.631.166 39.442-16.938 40.312-38.396l31.197-303.633C298.58 23.018 277.805 0 251.19 0z" fill="#e03905"/><path d="M370.601 314.487H256.143c-10.937 0-19.803-8.867-19.803-19.803v-90.662c0-10.937 8.867-19.803 19.803-19.803h114.458c10.937 0 19.803 8.867 19.803 19.803v90.662c.001 10.936-8.866 19.803-19.803 19.803z" fill="#f4f4f4"/><path d="M375.841 511.997l-126.752-.976c-39.18-.301-70.81-32.422-70.509-71.602l.721-93.632c.301-39.179 32.422-70.809 71.601-70.508l126.752.974c39.18.302 70.81 32.422 70.509 71.601l-.72 93.632c-.302 39.182-32.423 70.812-71.602 70.511z" fill="#ccf7f5"/><path d="M313.371 453.023c-33.233 0-60.268-27.037-60.268-60.27s27.037-60.27 60.268-60.27c33.233 0 60.27 27.037 60.27 60.27s-27.038 60.27-60.27 60.27z" fill="#ff8546"/><path d="M370.601 184.216h-57.27v130.269h57.27c10.937 0 19.803-8.867 19.803-19.803V204.02c.001-10.937-8.866-19.804-19.803-19.804z" fill="#e0e0e0"/><path d="M377.654 276.256l-64.324-.495v235.755l62.51.481c39.18.301 71.3-31.329 71.602-70.509l.72-93.632c.302-39.178-31.328-71.298-70.508-71.6z" fill="#74d6d0"/><path d="M313.371 332.484l-.041.001v120.538l.041.001c33.233 0 60.27-27.037 60.27-60.27-.001-33.233-27.038-60.27-60.27-60.27z" fill="#e03905"/></svg>