<svg xmlns="http://www.w3.org/2000/svg" viewBox="0 0 345.47 345.47"><path d="M305.41 179.52v140.07c0 14.29-11.59 25.88-25.88 25.88H65.94c-14.29 0-25.88-11.59-25.88-25.88V179.52c0-7.71 4.24-14.76 10.99-18.48 10.17-5.61 23.74-15.11 23.74-25.89V0h30.49c0 37.25 30.2 67.45 67.45 67.45 37.26 0 67.46-30.2 67.46-67.45h30.48v135.15c0 10.78 13.57 20.28 23.75 25.89 6.75 3.72 10.99 10.77 10.99 18.48z" fill="#1dd2a5"/><path d="M294.42 161.04c-10.18-5.61-23.75-15.11-23.75-25.89V0h-30.48c0 37.249-30.198 67.447-67.455 67.45v278.02H279.53c14.29 0 25.88-11.59 25.88-25.88V179.52c0-7.71-4.24-14.76-10.99-18.48z" fill="#2cb79a"/><path d="M231.985 183.117h-12.333c-11.414 0-20.667-9.253-20.667-20.667v-36h53.667v36c0 11.414-9.253 20.667-20.667 20.667z" fill="#fae16e"/><path fill="#fce98e" d="M40.06 270.57h265.35v32.63H40.06z"/><path fill="#fae16e" d="M172.735 270.57H305.41v32.63H172.735z"/><path fill="#fce98e" d="M40.06 206.88h265.35v32.64H40.06z"/><path fill="#fae16e" d="M172.735 206.88H305.41v32.64H172.735z"/></svg>