<svg xmlns="http://www.w3.org/2000/svg" viewBox="0 0 504 504"><path d="M115.2 267.2c0 12.8-10.4 24-24 24H72c-12.8 0-24-10.4-24-24v-30.4c0-12.8 10.4-24 24-24h20c12.8 0 24 10.4 24 24v30.4h-.8z" fill="#9da3a2"/><path d="M115.2 264c0 10.4-10.4 18.4-24 18.4H72c-12.8 0-24-8-24-18.4v-24c0-10.4 10.4-18.4 24-18.4h20c12.8 0 24 8 24 18.4v24h-.8z" fill="#7e8987"/><path d="M115.2 259.2c0 6.4-10.4 11.2-24 11.2H72c-12.8 0-24-4.8-24-11.2v-14.4c0-6.4 10.4-11.2 24-11.2h20c12.8 0 24 4.8 24 11.2v14.4h-.8z" fill="#687270"/><path d="M379.2 480c0 12.8-10.4 24-24 24H182.4c-12.8 0-24-10.4-24-24V24c0-12.8 10.4-24 24-24h172.8c12.8 0 24 10.4 24 24v456z" fill="#605854"/><path d="M182.4 0h172.8c12.8 0 24 10.4 24 24v456c0 12.8-10.4 24-24 24H182.4" fill="#443932"/><path d="M355.2 0c12.8 0 24 10.4 24 24v456c0 12.8-10.4 24-24 24" fill="#2d241f"/><path d="M366.4 49.6c0 7.2-5.6 12.8-12.8 12.8h-176c-7.2 0-12.8-5.6-12.8-12.8 0-7.2 5.6-12.8 12.8-12.8h175.2c8 0 13.6 5.6 13.6 12.8z" fill="#ff7bc3"/><g fill="#aa0c6a"><path d="M366.4 449.6c0 7.2-5.6 12.8-12.8 12.8h-176c-7.2 0-12.8-5.6-12.8-12.8 0-7.2 5.6-12.8 12.8-12.8h175.2c8 0 13.6 5.6 13.6 12.8z"/><path d="M456 404c0 21.6-17.6 49.6-38.4 49.6H114.4C92.8 453.6 76 424.8 76 404V100c0-21.6 17.6-49.6 38.4-49.6h303.2c21.6 0 38.4 28.8 38.4 49.6v304z"/></g><path d="M456 404c0 21.6-17.6 38.4-38.4 38.4H114.4C92.8 442.4 76 424.8 76 404V100c0-21.6 17.6-49.6 38.4-49.6h303.2c21.6 0 38.4 28.8 38.4 49.6v304z" fill="#ff7bc3"/><path d="M456 404c0 21.6-17.6 38.4-38.4 38.4H114.4C92.8 442.4 76 424.8 76 404V100c0-21.6 17.6-38.4 38.4-38.4h303.2c21.6 0 38.4 17.6 38.4 38.4v304z" fill="#ef3388"/><path d="M114.4 61.6h303.2c21.6 0 38.4 17.6 38.4 38.4v304c0 21.6-17.6 38.4-38.4 38.4H114.4" fill="#c61777"/><path d="M417.6 61.6c21.6 0 38.4 17.6 38.4 38.4v304c0 21.6-17.6 38.4-38.4 38.4" fill="#aa0c6a"/><path d="M421.6 376c0 17.6-14.4 32-32 32h-248c-17.6 0-32-14.4-32-32V128c0-17.6 14.4-32 32-32h248c17.6 0 32 14.4 32 32v248z" fill="#093f63"/><g fill="#00233f"><path d="M141.6 96h248c17.6 0 32 14.4 32 32v248c0 17.6-14.4 32-32 32M174.4 301.6c-5.6 0-10.4-.8-14.4-3.2-4-2.4-8-4.8-11.2-8.8s-5.6-8-7.2-12.8c-1.6-4.8-2.4-10.4-2.4-16s.8-11.2 2.4-16c1.6-4.8 4-9.6 7.2-12.8 3.2-4 6.4-6.4 11.2-8.8 4-2.4 8.8-3.2 14.4-3.2 4.8 0 9.6.8 14.4 3.2 4 2.4 8 4.8 11.2 8.8s5.6 8 7.2 12.8c1.6 4.8 2.4 10.4 2.4 16s-.8 11.2-2.4 16c-1.6 4.8-4 9.6-7.2 12.8-3.2 4-6.4 6.4-11.2 8.8-4 1.6-8.8 3.2-14.4 3.2zm.8-16c2.4 0 4.8-.8 7.2-1.6 2.4-1.6 4-3.2 5.6-5.6s2.4-4.8 3.2-8 .8-6.4.8-10.4-.8-7.2-1.6-9.6c-.8-3.2-2.4-5.6-3.2-8-1.6-2.4-3.2-4-5.6-5.6-2.4-1.6-4.8-1.6-7.2-1.6s-4.8.8-7.2 1.6c-2.4 1.6-4 3.2-5.6 4.8-1.6 2.4-2.4 4.8-3.2 8s-1.6 6.4-1.6 10.4 0 7.2 1.6 10.4c.8 3.2 1.6 5.6 3.2 8 1.6 2.4 3.2 4 5.6 5.6 2.4.8 4.8 1.6 8 1.6z"/><path d="M221.6 286.4l26.4-21.6c2.4-2.4 4.8-4 6.4-5.6s3.2-3.2 4-4.8c.8-1.6 1.6-3.2 2.4-4 .8-1.6.8-3.2.8-4.8 0-3.2-.8-5.6-3.2-8-1.6-1.6-4.8-2.4-8-2.4s-5.6.8-8 2.4c-2.4 1.6-4.8 4-8 8l-12-9.6c1.6-2.4 4-4.8 5.6-7.2s4-4 6.4-4.8c2.4-1.6 4.8-2.4 8-3.2 3.2-.8 5.6-.8 9.6-.8s8 .8 11.2 1.6 6.4 3.2 8.8 4.8c2.4 2.4 4 4.8 5.6 8s1.6 6.4 1.6 10.4c0 3.2-.8 6.4-1.6 8.8-.8 2.4-2.4 4.8-4 7.2-1.6 2.4-4 4.8-6.4 7.2-2.4 2.4-5.6 4.8-8.8 7.2l-12.8 9.6H280V300h-58.4v-13.6zm72-25.6c0-21.6 12.8-40.8 32.8-40.8s32.8 19.2 32.8 40.8c0 21.6-12.8 40.8-32.8 40.8-20 0-32.8-19.2-32.8-40.8zm59.2 0c0-18.4-10.4-36-26.4-36S300 241.6 300 260c0 18.4 10.4 35.2 26.4 35.2 16 .8 26.4-16 26.4-34.4zm32.8-34.4l-12.8 4h-1.6c-1.6 0-2.4-.8-2.4-2.4 0-1.6.8-2.4 2.4-2.4l13.6-4.8c1.6-.8 2.4-.8 4-.8s3.2 1.6 3.2 3.2v74.4c0 1.6-1.6 3.2-3.2 3.2s-3.2-1.6-3.2-3.2v-71.2z"/></g><path d="M174.4 292.8c-5.6 0-10.4-.8-14.4-3.2-4-2.4-8-4.8-11.2-8.8s-5.6-8-7.2-12.8c-1.6-4.8-2.4-10.4-2.4-16s.8-11.2 2.4-16c1.6-4.8 4-9.6 7.2-12.8 3.2-4 6.4-6.4 11.2-8.8 4-2.4 8.8-3.2 14.4-3.2 4.8 0 9.6.8 14.4 3.2 4 2.4 8 4.8 11.2 8.8s5.6 8 7.2 12.8c1.6 4.8 2.4 10.4 2.4 16s-.8 11.2-2.4 16c-1.6 4.8-4 9.6-7.2 12.8-3.2 4-6.4 6.4-11.2 8.8-4 2.4-8.8 3.2-14.4 3.2zm.8-16c2.4 0 4.8-.8 7.2-1.6 2.4-1.6 4-3.2 5.6-5.6s2.4-4.8 3.2-8 .8-6.4.8-10.4-.8-7.2-1.6-9.6c-.8-3.2-2.4-5.6-3.2-8-1.6-2.4-3.2-4-5.6-5.6-2.4-1.6-4.8-1.6-7.2-1.6s-4.8.8-7.2 1.6c-2.4 1.6-4 3.2-5.6 4.8-1.6 2.4-2.4 4.8-3.2 8s-1.6 6.4-1.6 10.4 0 7.2 1.6 10.4c.8 3.2 1.6 5.6 3.2 8 1.6 2.4 3.2 4 5.6 5.6s4.8 1.6 8 1.6zm46.4.8L248 256c2.4-2.4 4.8-4 6.4-5.6s3.2-3.2 4-4.8 1.6-3.2 2.4-4c.8-1.6.8-3.2.8-4.8 0-3.2-.8-5.6-3.2-8-1.6-1.6-4.8-2.4-8-2.4s-5.6.8-8 2.4c-2.4 1.6-4.8 4-8 8l-12-8.8c1.6-2.4 4-4.8 5.6-7.2s4-4 6.4-4.8c2.4-1.6 4.8-2.4 8-3.2 2.4-.8 5.6-.8 9.6-.8s8 .8 11.2 1.6 6.4 3.2 8.8 4.8c2.4 2.4 4 4.8 5.6 8s1.6 6.4 1.6 10.4c0 3.2-.8 6.4-1.6 8.8-.8 2.4-2.4 4.8-4 7.2-1.6 2.4-4 4.8-6.4 7.2-2.4 2.4-5.6 4.8-8.8 7.2l-12.8 9.6H280V292h-58.4v-14.4z" fill="#fffffd"/><path d="M293.6 252c0-21.6 12.8-40.8 32.8-40.8s32.8 19.2 32.8 40.8c0 21.6-12.8 40.8-32.8 40.8s-32.8-19.2-32.8-40.8zm59.2 0c0-18.4-10.4-36-26.4-36S300 232.8 300 251.2c0 18.4 10.4 35.2 26.4 35.2 16 .8 26.4-16 26.4-34.4zm32.8-34.4l-12.8 4h-1.6c-1.6 0-2.4-.8-2.4-2.4 0-1.6.8-2.4 2.4-2.4l13.6-4.8c1.6-.8 2.4-.8 4-.8s3.2 1.6 3.2 3.2v74.4c0 1.6-1.6 3.2-3.2 3.2s-3.2-1.6-3.2-3.2v-71.2z" fill="#acbcbb"/><g fill="#ef3388"><circle cx="236" cy="80.8" r="4"/><circle cx="265.6" cy="80.8" r="4"/><circle cx="295.2" cy="80.8" r="4"/><circle cx="236" cy="423.2" r="4"/><circle cx="265.6" cy="423.2" r="4"/><circle cx="295.2" cy="423.2" r="4"/></g><path d="M104.8 73.6c3.2 2.4 1.6 11.2-4 18.4-5.6 7.2-12.8 11.2-16.8 8-3.2-2.4-1.6-11.2 4-18.4 5.6-6.4 13.6-10.4 16.8-8zm-16 313.6c0 2.4-1.6 4-4 4s-4-1.6-4-4v-272c0-2.4 1.6-4 4-4s4 1.6 4 4v272z" fill="#ff7bc3"/></svg>