<svg data-name="Layer 1" xmlns="http://www.w3.org/2000/svg" viewBox="0 0 120 36"><path d="M27.42 23.39l.28 1.28-3 6.26H18L30.83 5.07l12.82 25.86H37l-2.92-6 .21-1.49-3.44-7.89zm-2.53-1.64h12l.39 4.48H24.47zM55.52 19a2 2 0 00-1.79-.77 3 3 0 00-1.46.35 2.37 2.37 0 00-1 1A3.29 3.29 0 0051 21.2v9.73h-5.33v-16H51v2.4a5.13 5.13 0 011.89-2.05 5.59 5.59 0 013-.73 5.39 5.39 0 014.35 1.6 6.73 6.73 0 011.35 4.48v10.3h-5.53V21.2a3.77 3.77 0 00-.54-2.2zm10.37-.83a8.06 8.06 0 013.27-2.92 11 11 0 019.36 0 8.19 8.19 0 013.27 2.92A8 8 0 0183 22.59 7.94 7.94 0 0181.79 27a8 8 0 01-3.27 2.92 11 11 0 01-9.36 0A7.92 7.92 0 0165.89 27a8 8 0 01-1.18-4.37 8.11 8.11 0 011.18-4.46zm4.73 6.55A3.8 3.8 0 0072 26.1a3.88 3.88 0 003.74 0 3.65 3.65 0 001.35-1.38 4.2 4.2 0 00.51-2.13 4.31 4.31 0 00-.51-2.16A3.61 3.61 0 0075.71 19a3.68 3.68 0 00-5.09 1.39 4.22 4.22 0 00-.53 2.16 4.1 4.1 0 00.53 2.17zM96 19a2 2 0 00-1.79-.77 3 3 0 00-1.46.35 2.43 2.43 0 00-1 1 3.41 3.41 0 00-.35 1.6v9.73h-5.29v-16h5.28v2.4a5.23 5.23 0 011.9-2.05 5.59 5.59 0 013-.73 5.37 5.37 0 014.34 1.6 6.68 6.68 0 011.37 4.51v10.29h-5.5V21.2A3.77 3.77 0 0096 19z" fill="#202020"/></svg>