<svg width="44" height="29" fill="none" xmlns="http://www.w3.org/2000/svg"><path d="M44 19c0 5.523-4.477 10-10 10s-10-4.477-10-10S28.477 9 34 9s10 4.477 10 10z" fill="#1C62CD"/><path d="M33.544 23v-5.962h-.024l-1.841 1.309v-1.075l1.855-1.318h1.08V23h-1.07z" fill="#fff"/><path d="M29.999 0l-.929 2.5h-2.41l-4.342 15H5.767L0 3.75h21.015l-.705 2.5H3.759L7.43 15h13.035l4.29-15H30zM10.624 18.75a1.876 1.876 0 10.001 3.751 1.876 1.876 0 00-.001-3.751zM19.249 10l-2.375 8.75a1.875 1.875 0 100 3.75 1.875 1.875 0 000-3.75L19.249 10z" fill="#2F3035"/></svg>