<?xml version="1.0" encoding="utf-8"?><svg xmlns="http://www.w3.org/2000/svg" xmlns:xlink="http://www.w3.org/1999/xlink"><symbol viewBox="0 0 512 512" id="icons--bag" xmlns="http://www.w3.org/2000/svg"><path d="M344 160c-4.422 0-8-3.582-8-8v-48c0-44.113-35.891-80-80-80s-80 35.887-80 80v48c0 4.418-3.578 8-8 8s-8-3.582-8-8v-48c0-52.934 43.063-96 96-96s96 43.066 96 96v48c0 4.418-3.578 8-8 8z"/><path d="M475.219 411.84l-25.68-184c-6.031-43.234-43.5-75.84-87.148-75.84H149.609c-43.648 0-81.117 32.605-87.148 75.84l-25.68 184a87.958 87.958 0 0020.773 69.926A87.968 87.968 0 00123.938 512h264.125a87.965 87.965 0 0066.383-30.234 87.959 87.959 0 0020.773-69.926z"/><path d="M362.391 152H149.609c-9.632 0-18.928 1.669-27.687 4.608l22.788 141.869C149.734 324.855 172.867 344 199.719 344h112.563c26.852 0 49.984-19.145 55.047-45.75l22.749-141.642c-8.759-2.939-18.056-4.608-27.687-4.608z"/><path d="M304 304h-96c-8.837 0-16-7.163-16-16s7.163-16 16-16h96c8.837 0 16 7.163 16 16s-7.163 16-16 16zM192 384c0-8.837 7.163-16 16-16s16 7.163 16 16-7.163 16-16 16-16-7.163-16-16zm0 64c0-8.837 7.163-16 16-16s16 7.163 16 16-7.163 16-16 16-16-7.163-16-16zm96-64c0-8.837 7.163-16 16-16s16 7.163 16 16-7.163 16-16 16-16-7.163-16-16zm0 64c0-8.837 7.163-16 16-16s16 7.163 16 16-7.163 16-16 16-16-7.163-16-16zM323.891 64c-4.605 0-9.18-1.98-12.344-5.813C297.801 41.547 277.555 32 256 32s-41.801 9.547-55.547 26.188c-5.637 6.816-15.719 7.773-22.523 2.148-6.816-5.625-7.777-15.711-2.148-22.523C195.625 13.781 224.867 0 256 0s60.375 13.781 80.219 37.813c5.629 6.813 4.668 16.898-2.148 22.523A15.92 15.92 0 01323.891 64zM152 152c0-8.837 7.163-16 16-16s16 7.163 16 16m144 0c0-8.837 7.163-16 16-16s16 7.163 16 16"/></symbol><symbol viewBox="0 0 511.753 511.753" id="icons--coat" xmlns="http://www.w3.org/2000/svg"><path d="M105.807 70.621c7.106-6.709 30.72-16.419 53.389-23.817-3.513 19.527 8.925 41.295 34.887 41.472 6.268.044 9.454 0 17.655 0l-31.311 23.066c-14.23 10.134-17.152 30.517-5.614 43.635.177.194.353.397.538.6 18.211 20.136 56.806 65.112 80.525 65.112s62.314-44.977 80.525-65.112c.185-.203.362-.406.538-.6 11.538-13.118 8.616-33.501-5.614-43.635l-31.311-23.066c8.201 0 11.388.044 17.655 0 25.962-.177 38.4-21.945 34.887-41.472 22.669 7.398 46.283 17.108 53.389 23.817 19.862 18.759 67.31 295.177 88.276 397.241l-61.793 8.828s-39.724-220.142-45.798-238.345c-6.065-18.211-24.638-61.608-24.638-61.608-8.898 25.194-16.49 61.334-17.611 96.918l1.562 8.58h7.036c3.293 15.819 5.455 34.004 8.828 52.966h-5.932c10.125 47.678 23.587 112.967 23.587 158.897-35.31 17.655-88.276 17.655-123.586 17.655s-88.276 0-123.586-17.655c0-45.903 13.303-110.468 23.587-158.897h-5.932c3.372-18.962 5.535-37.146 8.828-52.966h7.036l1.562-8.58c-1.121-35.584-8.713-71.724-17.611-96.918 0 0-18.573 43.396-24.638 61.608-6.073 18.202-45.798 238.345-45.798 238.345l-61.793-8.828C38.497 365.798 85.945 89.379 105.807 70.621z"/><path d="M229.394 335.203h-79.448c3.372-18.962 5.535-37.146 8.828-52.966h70.621v52.966zm52.965-52.966h70.621c3.293 15.819 5.455 34.004 8.828 52.966H282.36v-52.966zM194.083 8.828c-9.251 3.743-17.346 11.555-24.55 18.591l-.265.265c-20.895 20.18-10.487 60.354 24.814 60.593 6.268.044 9.454 0 17.655 0l-31.311 23.066c-14.23 10.134-17.152 30.517-5.614 43.635.177.194.353.397.538.6 18.211 20.136 56.797 65.112 80.525 65.112v-44.138C217.812 153.565 194.083 8.828 194.083 8.828m123.587 0c9.251 3.743 17.346 11.555 24.549 18.591l.265.265c20.895 20.18 10.487 60.354-24.814 60.593-6.268.044-9.454 0-17.655 0l31.311 23.066c14.23 10.134 17.152 30.517 5.614 43.635-.177.194-.353.397-.538.6-18.211 20.136-56.797 65.112-80.525 65.112v-44.138C293.941 153.565 317.67 8.828 317.67 8.828"/><path d="M255.876 0c-26.483 0-50.158 4.361-61.793 8.828l8.828 44.138h105.932l8.828-44.138C306.035 4.361 282.359 0 255.876 0M255.876 52.966h-52.93c10.169 44.579 28.61 108.906 52.93 123.586 24.32-14.68 42.761-79.007 52.93-123.586h-52.93zM133.614 467.479c41.631-1.783 72.863-43.723 55.631-88.135h-42.417c-5.737 29.414-10.918 60.46-13.214 88.135m231.305-88.138h-42.417c-17.231 44.412 14.001 86.351 55.631 88.135-2.303-27.693-7.502-58.828-13.214-88.135m-109.043-97.104a8.82 8.82 0 01-8.828-8.828v-52.966a8.82 8.82 0 018.828-8.828 8.82 8.82 0 018.828 8.828v52.966a8.82 8.82 0 01-8.828 8.828m8.828 229.496V344.027a8.826 8.826 0 00-8.828-8.828 8.826 8.826 0 00-8.828 8.828v167.706c2.984.009 6.047.018 8.828.018 2.781 0 5.844-.009 8.828-.018M282.359 335.203h17.655l26.483-26.483-26.483-26.483h-17.655z"/><path d="M229.394 344.032h52.965v-70.62h-52.965z"/><path d="M255.876 326.375a8.82 8.82 0 01-8.828-8.828v-17.655a8.82 8.82 0 018.828-8.828 8.82 8.82 0 018.828 8.828v17.655a8.82 8.82 0 01-8.828 8.828"/></symbol><symbol viewBox="0 0 512 512" id="icons--cosmetics" xmlns="http://www.w3.org/2000/svg"><path d="M229.574 453.023l-97.217-.747c-10.937-.085-19.735-9.018-19.65-19.955l.593-77.007c.083-10.937 9.018-19.735 19.955-19.65l97.217.749c10.937.083 19.735 9.018 19.65 19.955l-.593 77.007c-.083 10.934-9.019 19.732-19.955 19.648z"/><path d="M108.743 0C82.483 0 61.829 22.433 63.99 48.603l16.917 204.739.001.015 10.625 98.439c.54 21.466 18.087 38.845 39.716 39.011l93.102.716c21.631.166 39.442-16.938 40.312-38.396L295.86 49.494C298.58 23.018 277.805 0 251.19 0H108.743z"/><path d="M251.19 0h-72.256v391.173l45.418.35c21.631.166 39.442-16.938 40.312-38.396l31.197-303.633C298.58 23.018 277.805 0 251.19 0z"/><path d="M370.601 314.487H256.143c-10.937 0-19.803-8.867-19.803-19.803v-90.662c0-10.937 8.867-19.803 19.803-19.803h114.458c10.937 0 19.803 8.867 19.803 19.803v90.662c.001 10.936-8.866 19.803-19.803 19.803z"/><path d="M375.841 511.997l-126.752-.976c-39.18-.301-70.81-32.422-70.509-71.602l.721-93.632c.301-39.179 32.422-70.809 71.601-70.508l126.752.974c39.18.302 70.81 32.422 70.509 71.601l-.72 93.632c-.302 39.182-32.423 70.812-71.602 70.511z"/><path d="M313.371 453.023c-33.233 0-60.268-27.037-60.268-60.27s27.037-60.27 60.268-60.27c33.233 0 60.27 27.037 60.27 60.27s-27.038 60.27-60.27 60.27zM370.601 184.216h-57.27v130.269h57.27c10.937 0 19.803-8.867 19.803-19.803V204.02c.001-10.937-8.866-19.804-19.803-19.804z"/><path d="M377.654 276.256l-64.324-.495v235.755l62.51.481c39.18.301 71.3-31.329 71.602-70.509l.72-93.632c.302-39.178-31.328-71.298-70.508-71.6z"/><path d="M313.371 332.484l-.041.001v120.538l.041.001c33.233 0 60.27-27.037 60.27-60.27-.001-33.233-27.038-60.27-60.27-60.27z"/></symbol><symbol viewBox="0 0 511.996 511.996" id="icons--dress" xmlns="http://www.w3.org/2000/svg"><path d="M120.271 70.894c1.995-3.805 4.979-6.991 8.351-9.613 21.257-16.49 49.02-11.414 73.613-17.073 13.4-3.081 25.83-11.388 27.277-26.553.124-1.28 0-17.655 0-17.655h52.966s-.124 16.375 0 17.655c1.448 15.166 13.877 23.473 27.277 26.553 24.594 5.658 52.356.583 73.613 17.073 3.372 2.622 6.356 5.809 8.351 9.613 0 0 12.138 30.897-56.276 88.002H176.547c-68.414-57.105-56.276-88.002-56.276-88.002"/><path d="M395.677 343.618c-24.858-33.298-49.028-59.021-63.682-73.657-8.192-8.174-11.396-19.959-8.58-31.188 6.321-25.212 12.394-65.465 12.394-79.881H176.18c0 14.415 6.082 54.669 12.403 79.881 2.816 11.229-.388 23.013-8.58 31.188-14.663 14.636-38.833 40.36-63.691 73.657-29.105 39-47.642 84.895-54.519 133.067 7.601 6.674 34.957 17.646 48.199 17.646 35.31 0 51.112-6.241 58.094-8.819 0 0 26.121 26.483 52.604 26.483 28.769 0 35.31-8.951 35.31-8.951s6.532 8.951 35.31 8.951c26.483 0 52.595-26.483 52.595-26.483 6.991 2.578 22.784 8.819 58.094 8.819 13.241 0 40.607-10.973 48.207-17.646-6.887-48.172-25.416-94.067-54.529-133.067"/><path d="M176.346 273.653h159.303a467.3 467.3 0 00-3.54-3.558c-8.254-8.254-11.494-20.189-8.66-31.523l.053-.23H188.484l.062.23c2.825 11.335-.406 23.27-8.669 31.523a453.732 453.732 0 00-3.531 3.558"/><path d="M255.995 247.17a8.826 8.826 0 008.828-8.828v-79.448h-17.656v79.448a8.826 8.826 0 008.828 8.828M343.03 48.174c-6.647-.636-13.365-1.059-19.977-1.801-25.344 28.292-40.298 78.045-40.298 112.516h17.655c0-37.058 17.938-84.189 39.98-105.048 1.633-1.545 2.463-3.584 2.64-5.667m-174.07 0c.177 2.083 1.006 4.122 2.639 5.667 22.042 20.86 39.98 67.99 39.98 105.048h17.655c0-34.472-14.954-84.224-40.298-112.516-6.611.742-13.328 1.165-19.976 1.801"/></symbol><symbol viewBox="0 0 512 512" id="icons--glasses" xmlns="http://www.w3.org/2000/svg"><path d="M281.6 260.051h-51.2a8.53 8.53 0 01-8.533-8.533 8.53 8.53 0 018.533-8.533h51.2a8.53 8.53 0 018.533 8.533 8.53 8.53 0 01-8.533 8.533m-25.609-68.05a130.662 130.662 0 01-45.918-8.329l-29.175-11.025c-4.403-1.664-6.63-6.588-4.966-10.999 1.664-4.403 6.613-6.622 10.999-4.966l29.15 11.017a113.666 113.666 0 0079.863-.009l29.124-11.008c4.386-1.673 9.327.555 10.999 4.966 1.664 4.412-.563 9.335-4.966 10.999l-29.15 11.017a130.988 130.988 0 01-45.96 8.337M25.6 260.051H8.533A8.53 8.53 0 010 251.518a8.53 8.53 0 018.533-8.533H25.6a8.53 8.53 0 018.533 8.533 8.53 8.53 0 01-8.533 8.533m477.867 0H486.4a8.53 8.53 0 01-8.533-8.533 8.53 8.53 0 018.533-8.533h17.067a8.53 8.53 0 018.533 8.533 8.53 8.53 0 01-8.533 8.533"/><path d="M119.017 362.451c-51.593 0-93.414-41.822-93.414-93.414v-26.052c0-33.323 17.698-61.525 46.481-78.319 34.551-20.156 77.286-20.156 111.829 0 28.791 16.794 46.49 44.996 46.49 78.319v8.533c0 61.517-49.869 110.933-111.386 110.933"/><path d="M59.733 254.134a8.53 8.53 0 01-8.533-8.533c0-24.124 12.945-46.66 33.783-58.82 4.079-2.372 9.301-.998 11.665 3.072 2.372 4.07 1.007 9.293-3.063 11.665-15.616 9.114-25.318 26.001-25.318 44.083a8.531 8.531 0 01-8.534 8.533M392.983 362.451c51.593 0 93.414-41.822 93.414-93.414v-26.052c0-36.258-17.698-61.525-46.481-78.319-34.551-20.156-77.286-20.156-111.829 0-28.791 16.794-46.49 44.996-46.49 78.319v8.533c0 61.517 49.869 110.933 111.386 110.933"/></symbol><symbol viewBox="0 0 512 512" id="icons--hat" xmlns="http://www.w3.org/2000/svg"><path d="M256 121.598c-33.525 0-60.799-27.275-60.799-60.799S222.475 0 256 0s60.799 27.275 60.799 60.799-27.274 60.799-60.799 60.799z"/><path d="M256 0v121.598c33.525 0 60.799-27.275 60.799-60.799S289.525 0 256 0z"/><path d="M322.685 92.098c-37.934-11.276-95.744-11.185-133.37 0-79.81 23.739-138.178 97.78-138.178 185.182v104.923c0 10.34 8.379 18.732 18.732 18.732H442.13c10.352 0 18.732-8.392 18.732-18.732V277.279c0-87.402-58.368-161.442-138.177-185.181z"/><path d="M322.685 92.098c-18.937-5.63-42.826-8.426-66.685-8.423v317.259h186.131c10.352 0 18.732-8.392 18.732-18.732V277.279c-.001-87.402-58.369-161.442-138.178-185.181z"/><path d="M336.771 136.404v264.529h-37.463V136.404c0-52.815-86.615-52.645-86.615 0v264.529H175.23V136.404a76.463 76.463 0 0114.086-44.307c36.931-10.979 94.822-11.46 133.37 0 8.865 12.526 14.085 27.823 14.085 44.307z"/><path d="M322.685 92.098c-19.111-5.681-42.977-8.424-66.685-8.412v13.171c21.654-.021 43.308 13.14 43.308 39.548v264.529h37.463v-264.53a76.458 76.458 0 00-14.086-44.306z"/><path d="M481.924 512H30.076c-10.345 0-18.732-8.387-18.732-18.732V382.197c0-10.345 8.387-18.732 18.732-18.732h451.849c10.345 0 18.732 8.387 18.732 18.732v111.072c-.001 10.344-8.388 18.731-18.733 18.731z"/><path d="M481.924 363.465H256V512h225.924c10.345 0 18.732-8.387 18.732-18.732V382.197c0-10.345-8.387-18.732-18.732-18.732z"/><path d="M299.96 456.464h-87.92c-10.345 0-18.732-8.387-18.732-18.732 0-10.345 8.387-18.732 18.732-18.732h87.919c10.345 0 18.732 8.387 18.732 18.732 0 10.345-8.387 18.732-18.731 18.732z"/><path d="M299.96 419.001H256v37.463h43.96c10.345 0 18.732-8.387 18.732-18.732-.001-10.344-8.388-18.731-18.732-18.731z"/></symbol><symbol viewBox="0 0 512 512" id="icons--jacket" xmlns="http://www.w3.org/2000/svg"><path d="M323.768 95.672H188.232c-10.345 0-18.732-8.387-18.732-18.732V18.732C169.501 8.387 177.888 0 188.232 0h135.535c10.345 0 18.732 8.387 18.732 18.732V76.94c0 10.345-8.387 18.732-18.731 18.732z"/><path d="M323.768 0H256v95.672h67.768c10.345 0 18.732-8.387 18.732-18.732V18.732C342.499 8.387 334.112 0 323.768 0z"/><path d="M345.662 58.206H166.338c-80.002 0-146.544 64.785-146.544 146.532v190.514c0 10.34 8.392 18.732 18.732 18.732h75.551v79.285c0 10.34 8.379 18.732 18.732 18.732h246.384c10.352 0 18.732-8.392 18.732-18.732v-79.285h75.551c10.34 0 18.732-8.392 18.732-18.732V204.738c-.001-81.742-66.525-146.532-146.546-146.532z"/><path d="M345.662 58.206H256V512h123.192c10.352 0 18.732-8.392 18.732-18.732v-79.285h75.551c10.34 0 18.732-8.392 18.732-18.732V204.738c0-81.742-66.524-146.532-146.545-146.532z"/><path d="M237.268 58.206h37.463V512h-37.463zM95.332 175.828c-10.34 0-18.732 8.392-18.732 18.732v126.685H19.793v37.463H76.6v55.275h37.463V194.56c.001-10.34-8.379-18.732-18.731-18.732z"/><path d="M256 58.206h18.732V512H256zm236.207 263.039h-56.813V194.563c0-10.345-8.387-18.732-18.732-18.732-10.345 0-18.732 8.387-18.732 18.732v219.414h37.463v-55.269h56.813v-37.463z"/></symbol><symbol viewBox="0 0 512 512" id="icons--jewelry" xmlns="http://www.w3.org/2000/svg"><path d="M421.741 152.114l-54.049 59.504h-42.156l-54.477-59.285 28.999-42.678h91.743z"/><path d="M421.741 152.114l-54.049 59.504H344.2V109.655h47.601z"/><path d="M459.853 285.783l-31.267 2.383c-3.281-42.919-39.638-76.548-82.766-76.548-.543 0-1.076 0-1.62.021-42.543.794-77.259 32.971-81.052 75.482l-31.225-2.78c2.529-28.341 15.498-54.592 36.524-73.925 20.744-19.072 47.591-29.741 75.754-30.128.543-.021 1.076-.021 1.62-.021 28.999 0 56.661 10.879 77.886 30.619 21.119 19.636 33.952 46.232 36.146 74.897z"/><path d="M459.853 285.783l-31.267 2.383c-3.281-42.919-39.638-76.548-82.766-76.548-.543 0-1.076 0-1.62.021v-31.351c.543-.021 1.076-.021 1.62-.021 28.999 0 56.661 10.879 77.886 30.619 21.12 19.636 33.953 46.232 36.147 74.897zM512 335.798v94.899c0 32.02-25.645 58.062-57.163 58.062H233.02c-31.518 0-57.163-26.042-57.163-58.062v-78.983l.01-.387.543-15.832c.188-5.309 1.285-10.503 3.271-15.519H508.77a46.556 46.556 0 012.445 8.58c.01.042.021.084.021.125.105.502.188 1.003.261 1.515.073.439.136.888.188 1.338.073.658.136 1.317.188 1.975.052.658.094 1.327.115 1.986l.012.303z"/><path d="M512 335.798v15.916H175.857l.01-.387.543-15.832c.188-5.309 1.285-10.503 3.271-15.519 4.661-11.809 14.191-22.677 28.069-32.04 6.793-4.577 14.62-8.81 23.44-12.603a70.72 70.72 0 012.048-.857c10.837-4.525 22.823-8.308 35.656-11.318 23.022-5.382 48.73-8.245 75.305-8.245 27.913 0 54.874 3.156 78.764 9.092 12.331 3.051 23.837 6.845 34.245 11.328.491.209.982.428 1.463.637 26.021 11.495 43.233 26.742 50.046 44.006a47.767 47.767 0 012.498 8.58c.01.042.021.084.021.125.094.502.188 1.014.261 1.515.073.439.136.888.188 1.338.073.658.136 1.317.188 1.975.052.658.094 1.327.115 1.986l.012.303z"/><path d="M207.751 23.241v328.473h-83.038c-3.637 0-7.242-.157-10.795-.47C50.182 345.757 0 292.137 0 227.001v-79.046C0 82.829 50.182 29.198 113.918 23.712c3.553-.314 7.158-.47 10.795-.47h83.038zM512 335.798v94.899c0 32.02-26.052 58.062-58.072 58.062H344.2V319.977h164.518c1.986 5.016 3.093 10.21 3.271 15.519l.011.302z"/><path d="M512 335.798v15.916H344.2v-96.801c27.913 0 54.874 3.156 78.764 9.092 12.331 3.051 23.837 6.845 34.246 11.328.491.209.982.428 1.463.637 26.021 11.495 43.233 26.742 50.046 44.006 1.986 5.016 3.093 10.21 3.271 15.519l.01.303zM207.751 187.478v164.236h-83.038c-3.637 0-7.242-.157-10.795-.47C50.182 345.757 0 292.137 0 227.001v-39.523h207.751z"/><path d="M145.269 23.241v328.473h-20.556c-3.637 0-7.242-.157-10.795-.47V23.712c3.553-.314 7.158-.47 10.795-.47h20.556z"/><path d="M145.269 187.478v164.236h-20.556c-3.637 0-7.242-.157-10.795-.47V187.478h31.351z"/></symbol><symbol viewBox="0 0 512 512" id="icons--perfume" xmlns="http://www.w3.org/2000/svg"><path d="M219.88 49.844h99.473v33.391H219.88z"/><path d="M188.807 163.76h-47.36V17.417h94.72V163.76z"/><path d="M212.487 163.76h-23.68V17.417h47.36V163.76zM293.832 512H83.784l-15.821-21.098c-59.385-79.191-55.245-189.138 9.929-263.638l25.496-29.145s19.782-24.621 85.419-24.621 85.419 24.621 85.419 24.621l25.496 29.145c65.173 74.499 69.315 184.447 9.929 263.638L293.832 512z"/><path d="M299.723 227.266l-25.496-29.145S254.445 173.5 188.808 173.5V512h105.023l15.821-21.098c59.386-79.189 55.244-189.137-9.929-263.636z"/><path d="M26.316 355.272c-2.247 47.363 11.519 95.455 41.647 135.63L83.784 512h210.048l15.821-21.098c30.128-40.175 43.894-88.267 41.647-135.63H26.316z"/><path d="M188.807 355.272V512H293.83l15.821-21.098c30.128-40.175 43.894-88.267 41.647-135.63H188.807z"/><path d="M172.108 178.822h33.391v246.317h-33.391z"/><path d="M188.804 178.822H205.5v246.317h-16.696z"/><path d="M188.807 115.664h-85.419v82.457h170.839v-82.457z"/><path d="M231.517 115.664h-42.71v82.457h85.42v-82.457z"/><ellipse cx="391.111" cy="66.54" rx="94.82" ry="66.54"/><path d="M485.928 66.54c0 36.749-42.45 66.54-94.815 66.54s-94.815-29.792-94.815-66.54h189.63z"/></symbol><symbol viewBox="0 0 123.961 109.305" id="icons--quotes" xmlns="http://www.w3.org/2000/svg"><path d="M49.8 21.704a5.96 5.96 0 003-8l-4.9-10.3a5.978 5.978 0 00-7.8-2.9 68.894 68.894 0 00-21.6 14A52.249 52.249 0 004 37.404c-2.6 8.6-4 20.3-4 35.2v30.7a6.018 6.018 0 006 6h39.3a6.018 6.018 0 006-6v-39.3a6.017 6.017 0 00-6-6H26.5c.2-10.1 2.6-18.2 7-24.3 3.6-4.899 9-8.899 16.3-12zm70.6 0a5.961 5.961 0 003-8l-4.9-10.2a5.979 5.979 0 00-7.8-2.9 72.439 72.439 0 00-21.5 13.9 53.37 53.37 0 00-14.6 23q-3.9 12.6-3.9 35.1v30.7a6.018 6.018 0 006 6H116a6.018 6.018 0 006-6v-39.3a6.017 6.017 0 00-6-6H97.1c.2-10.1 2.6-18.2 7-24.3 3.6-4.899 9-8.899 16.3-12z"/></symbol><symbol viewBox="0 0 448.02 448.02" id="icons--shoes" xmlns="http://www.w3.org/2000/svg"><path d="M200.126 161.091c-8.325-17.186-15.836-48.897-44.21-48.897-28.373 0-48.4 23.367 4.174 67.595l40.036-18.698z"/><path d="M437.361 295.545c0-35.48-28.762-64.242-64.242-64.242-34.559 0-113.951-23.638-155.737-65.423-41.786-41.786-64.768 4.357-91.928 4.357-27.161 0-50.142-20.985-85.661-20.985-35.518 0-34.473 51.279-34.473 92.02v54.273h432.041z"/><path d="M217.382 165.88c-41.786-41.786-64.768 4.357-91.928 4.357-27.161 0-50.142-20.985-85.661-20.985-27.653 0-33.142 31.085-34.217 64.078 26.574 3.768 84.781 26.672 105.105 82.215h125.001c-14.686-59.25 17.115-72.73 43.827-60.756 21.455 9.618 40.715-2.11 42.403-12.509-35.873-10.456-77.86-29.731-104.53-56.4z"/><path d="M165.745 233.867h-57a7.5 7.5 0 010-15h57a7.5 7.5 0 010 15zm15.265 22.844h-57a7.5 7.5 0 010-15h57a7.5 7.5 0 010 15zM125.454 170.237c-27.161 0-50.142-20.985-85.661-20.985-12.555 0-20.53 6.42-25.608 16.504 30.033 5.918 64.411 35.633 108.864 33.708 24.479-1.06 57.639-33.992 93.814-34.09-41.456-40.883-64.362 4.863-91.409 4.863zM429.608 289.846h-35.8c-66.146 0-265.817-16.922-326.298-16.922H14.32c-8.438 0-14.32 6.905-14.32 15.344v32.215c0 8.438 5.882 15.343 14.32 15.343h415.287c10.127 0 18.412-8.286 18.412-18.412v-9.156c.001-10.127-8.285-18.412-18.411-18.412z"/><path d="M382.12 289.704c-29.316-.629-74.753-3.306-122.727-6.345 2.492 7.871 3.945 15.984 1.783 21.016-2.956 6.879-16.243 20.591-27.504 31.451H376.47c4.412-13.59 7.729-30.132 5.65-46.122zM99.177 311.875H48.51a7.5 7.5 0 010-15h50.667a7.5 7.5 0 010 15z"/><circle cx="209.986" cy="185.568" r="7.5"/><circle cx="232.673" cy="201.289" r="7.5"/><circle cx="257.843" cy="214.945" r="7.501"/></symbol><symbol viewBox="0 0 512 512" id="icons--shorts" xmlns="http://www.w3.org/2000/svg"><path d="M52.967 8.828v52.966h406.069V8.828A8.829 8.829 0 00450.208 0H61.794a8.828 8.828 0 00-8.827 8.828z"/><path d="M211.863 0h17.655v61.793h-17.655z"/><path d="M449.516 52.966h-69.929V8.828A8.826 8.826 0 00370.759 0a8.826 8.826 0 00-8.828 8.828v44.138H150.07V8.828c0-4.875-3.948-8.828-8.828-8.828s-8.828 3.953-8.828 8.828v44.138H62.486c-10.017 0-18.027 8.324-17.642 18.334l16.623 432.212a8.827 8.827 0 008.821 8.489h150.723a8.827 8.827 0 008.821-8.501l8.21-221.67c.352-9.49 8.147-17.002 17.643-17.002h.629c9.496 0 17.291 7.512 17.643 17.002l8.21 221.67a8.827 8.827 0 008.821 8.501h150.723a8.827 8.827 0 008.821-8.489L467.155 71.3c.388-10.01-7.622-18.334-17.639-18.334z"/><path d="M48.139 156.966h31.31v-51.034a8.829 8.829 0 00-8.828-8.828H45.837l2.302 59.862zM221.012 512a8.827 8.827 0 008.821-8.501l.993-26.809H60.436l1.032 26.822a8.827 8.827 0 008.821 8.489h150.723zm60.164-35.31l.993 26.809A8.827 8.827 0 00290.99 512h150.723a8.827 8.827 0 008.821-8.489l1.032-26.822h-170.39z"/><circle cx="256.001" cy="26.483" r="8.828"/><path d="M459.036 176.552h4.074l1.018-26.483h-5.092c-24.376 0-44.138-19.762-44.138-44.138V52.966h-26.483v52.966c0 39.002 31.618 70.62 70.621 70.62zm-406.069 0h-4.074l-1.018-26.483h5.092c24.376 0 44.138-19.762 44.138-44.138V52.966h26.483v52.966c-.001 39.002-31.619 70.62-70.621 70.62zM256.001 52.966h-17.656v226.637c1.393-8.399 8.609-14.775 17.341-14.775H256V220.69h8.828a8.829 8.829 0 008.828-8.828V52.966h-17.655z"/></symbol><symbol viewBox="0 0 345.47 345.47" id="icons--tee" xmlns="http://www.w3.org/2000/svg"><path d="M305.41 179.52v140.07c0 14.29-11.59 25.88-25.88 25.88H65.94c-14.29 0-25.88-11.59-25.88-25.88V179.52c0-7.71 4.24-14.76 10.99-18.48 10.17-5.61 23.74-15.11 23.74-25.89V0h30.49c0 37.25 30.2 67.45 67.45 67.45 37.26 0 67.46-30.2 67.46-67.45h30.48v135.15c0 10.78 13.57 20.28 23.75 25.89 6.75 3.72 10.99 10.77 10.99 18.48z"/><path d="M294.42 161.04c-10.18-5.61-23.75-15.11-23.75-25.89V0h-30.48c0 37.249-30.198 67.447-67.455 67.45v278.02H279.53c14.29 0 25.88-11.59 25.88-25.88V179.52c0-7.71-4.24-14.76-10.99-18.48z"/><path d="M231.985 183.117h-12.333c-11.414 0-20.667-9.253-20.667-20.667v-36h53.667v36c0 11.414-9.253 20.667-20.667 20.667zM40.06 270.57h265.35v32.63H40.06z"/><path d="M172.735 270.57H305.41v32.63H172.735zM40.06 206.88h265.35v32.64H40.06z"/><path d="M172.735 206.88H305.41v32.64H172.735z"/></symbol><symbol viewBox="0 0 504 504" id="icons--watch" xmlns="http://www.w3.org/2000/svg"><path d="M115.2 267.2c0 12.8-10.4 24-24 24H72c-12.8 0-24-10.4-24-24v-30.4c0-12.8 10.4-24 24-24h20c12.8 0 24 10.4 24 24v30.4h-.8z"/><path d="M115.2 264c0 10.4-10.4 18.4-24 18.4H72c-12.8 0-24-8-24-18.4v-24c0-10.4 10.4-18.4 24-18.4h20c12.8 0 24 8 24 18.4v24h-.8z"/><path d="M115.2 259.2c0 6.4-10.4 11.2-24 11.2H72c-12.8 0-24-4.8-24-11.2v-14.4c0-6.4 10.4-11.2 24-11.2h20c12.8 0 24 4.8 24 11.2v14.4h-.8zM379.2 480c0 12.8-10.4 24-24 24H182.4c-12.8 0-24-10.4-24-24V24c0-12.8 10.4-24 24-24h172.8c12.8 0 24 10.4 24 24v456z"/><path d="M182.4 0h172.8c12.8 0 24 10.4 24 24v456c0 12.8-10.4 24-24 24H182.4"/><path d="M355.2 0c12.8 0 24 10.4 24 24v456c0 12.8-10.4 24-24 24"/><path d="M366.4 49.6c0 7.2-5.6 12.8-12.8 12.8h-176c-7.2 0-12.8-5.6-12.8-12.8 0-7.2 5.6-12.8 12.8-12.8h175.2c8 0 13.6 5.6 13.6 12.8zM366.4 449.6c0 7.2-5.6 12.8-12.8 12.8h-176c-7.2 0-12.8-5.6-12.8-12.8 0-7.2 5.6-12.8 12.8-12.8h175.2c8 0 13.6 5.6 13.6 12.8z"/><path d="M456 404c0 21.6-17.6 49.6-38.4 49.6H114.4C92.8 453.6 76 424.8 76 404V100c0-21.6 17.6-49.6 38.4-49.6h303.2c21.6 0 38.4 28.8 38.4 49.6v304z"/><path d="M456 404c0 21.6-17.6 38.4-38.4 38.4H114.4C92.8 442.4 76 424.8 76 404V100c0-21.6 17.6-49.6 38.4-49.6h303.2c21.6 0 38.4 28.8 38.4 49.6v304z"/><path d="M456 404c0 21.6-17.6 38.4-38.4 38.4H114.4C92.8 442.4 76 424.8 76 404V100c0-21.6 17.6-38.4 38.4-38.4h303.2c21.6 0 38.4 17.6 38.4 38.4v304z"/><path d="M114.4 61.6h303.2c21.6 0 38.4 17.6 38.4 38.4v304c0 21.6-17.6 38.4-38.4 38.4H114.4"/><path d="M417.6 61.6c21.6 0 38.4 17.6 38.4 38.4v304c0 21.6-17.6 38.4-38.4 38.4"/><path d="M421.6 376c0 17.6-14.4 32-32 32h-248c-17.6 0-32-14.4-32-32V128c0-17.6 14.4-32 32-32h248c17.6 0 32 14.4 32 32v248z"/><path d="M141.6 96h248c17.6 0 32 14.4 32 32v248c0 17.6-14.4 32-32 32M174.4 301.6c-5.6 0-10.4-.8-14.4-3.2-4-2.4-8-4.8-11.2-8.8s-5.6-8-7.2-12.8c-1.6-4.8-2.4-10.4-2.4-16s.8-11.2 2.4-16c1.6-4.8 4-9.6 7.2-12.8 3.2-4 6.4-6.4 11.2-8.8 4-2.4 8.8-3.2 14.4-3.2 4.8 0 9.6.8 14.4 3.2 4 2.4 8 4.8 11.2 8.8s5.6 8 7.2 12.8c1.6 4.8 2.4 10.4 2.4 16s-.8 11.2-2.4 16c-1.6 4.8-4 9.6-7.2 12.8-3.2 4-6.4 6.4-11.2 8.8-4 1.6-8.8 3.2-14.4 3.2zm.8-16c2.4 0 4.8-.8 7.2-1.6 2.4-1.6 4-3.2 5.6-5.6s2.4-4.8 3.2-8 .8-6.4.8-10.4-.8-7.2-1.6-9.6c-.8-3.2-2.4-5.6-3.2-8-1.6-2.4-3.2-4-5.6-5.6-2.4-1.6-4.8-1.6-7.2-1.6s-4.8.8-7.2 1.6c-2.4 1.6-4 3.2-5.6 4.8-1.6 2.4-2.4 4.8-3.2 8s-1.6 6.4-1.6 10.4 0 7.2 1.6 10.4c.8 3.2 1.6 5.6 3.2 8 1.6 2.4 3.2 4 5.6 5.6 2.4.8 4.8 1.6 8 1.6z"/><path d="M221.6 286.4l26.4-21.6c2.4-2.4 4.8-4 6.4-5.6s3.2-3.2 4-4.8c.8-1.6 1.6-3.2 2.4-4 .8-1.6.8-3.2.8-4.8 0-3.2-.8-5.6-3.2-8-1.6-1.6-4.8-2.4-8-2.4s-5.6.8-8 2.4c-2.4 1.6-4.8 4-8 8l-12-9.6c1.6-2.4 4-4.8 5.6-7.2s4-4 6.4-4.8c2.4-1.6 4.8-2.4 8-3.2 3.2-.8 5.6-.8 9.6-.8s8 .8 11.2 1.6 6.4 3.2 8.8 4.8c2.4 2.4 4 4.8 5.6 8s1.6 6.4 1.6 10.4c0 3.2-.8 6.4-1.6 8.8-.8 2.4-2.4 4.8-4 7.2-1.6 2.4-4 4.8-6.4 7.2-2.4 2.4-5.6 4.8-8.8 7.2l-12.8 9.6H280V300h-58.4v-13.6zm72-25.6c0-21.6 12.8-40.8 32.8-40.8s32.8 19.2 32.8 40.8c0 21.6-12.8 40.8-32.8 40.8-20 0-32.8-19.2-32.8-40.8zm59.2 0c0-18.4-10.4-36-26.4-36S300 241.6 300 260c0 18.4 10.4 35.2 26.4 35.2 16 .8 26.4-16 26.4-34.4zm32.8-34.4l-12.8 4h-1.6c-1.6 0-2.4-.8-2.4-2.4 0-1.6.8-2.4 2.4-2.4l13.6-4.8c1.6-.8 2.4-.8 4-.8s3.2 1.6 3.2 3.2v74.4c0 1.6-1.6 3.2-3.2 3.2s-3.2-1.6-3.2-3.2v-71.2z"/><path d="M174.4 292.8c-5.6 0-10.4-.8-14.4-3.2-4-2.4-8-4.8-11.2-8.8s-5.6-8-7.2-12.8c-1.6-4.8-2.4-10.4-2.4-16s.8-11.2 2.4-16c1.6-4.8 4-9.6 7.2-12.8 3.2-4 6.4-6.4 11.2-8.8 4-2.4 8.8-3.2 14.4-3.2 4.8 0 9.6.8 14.4 3.2 4 2.4 8 4.8 11.2 8.8s5.6 8 7.2 12.8c1.6 4.8 2.4 10.4 2.4 16s-.8 11.2-2.4 16c-1.6 4.8-4 9.6-7.2 12.8-3.2 4-6.4 6.4-11.2 8.8-4 2.4-8.8 3.2-14.4 3.2zm.8-16c2.4 0 4.8-.8 7.2-1.6 2.4-1.6 4-3.2 5.6-5.6s2.4-4.8 3.2-8 .8-6.4.8-10.4-.8-7.2-1.6-9.6c-.8-3.2-2.4-5.6-3.2-8-1.6-2.4-3.2-4-5.6-5.6-2.4-1.6-4.8-1.6-7.2-1.6s-4.8.8-7.2 1.6c-2.4 1.6-4 3.2-5.6 4.8-1.6 2.4-2.4 4.8-3.2 8s-1.6 6.4-1.6 10.4 0 7.2 1.6 10.4c.8 3.2 1.6 5.6 3.2 8 1.6 2.4 3.2 4 5.6 5.6s4.8 1.6 8 1.6zm46.4.8L248 256c2.4-2.4 4.8-4 6.4-5.6s3.2-3.2 4-4.8 1.6-3.2 2.4-4c.8-1.6.8-3.2.8-4.8 0-3.2-.8-5.6-3.2-8-1.6-1.6-4.8-2.4-8-2.4s-5.6.8-8 2.4c-2.4 1.6-4.8 4-8 8l-12-8.8c1.6-2.4 4-4.8 5.6-7.2s4-4 6.4-4.8c2.4-1.6 4.8-2.4 8-3.2 2.4-.8 5.6-.8 9.6-.8s8 .8 11.2 1.6 6.4 3.2 8.8 4.8c2.4 2.4 4 4.8 5.6 8s1.6 6.4 1.6 10.4c0 3.2-.8 6.4-1.6 8.8-.8 2.4-2.4 4.8-4 7.2-1.6 2.4-4 4.8-6.4 7.2-2.4 2.4-5.6 4.8-8.8 7.2l-12.8 9.6H280V292h-58.4v-14.4zM293.6 252c0-21.6 12.8-40.8 32.8-40.8s32.8 19.2 32.8 40.8c0 21.6-12.8 40.8-32.8 40.8s-32.8-19.2-32.8-40.8zm59.2 0c0-18.4-10.4-36-26.4-36S300 232.8 300 251.2c0 18.4 10.4 35.2 26.4 35.2 16 .8 26.4-16 26.4-34.4zm32.8-34.4l-12.8 4h-1.6c-1.6 0-2.4-.8-2.4-2.4 0-1.6.8-2.4 2.4-2.4l13.6-4.8c1.6-.8 2.4-.8 4-.8s3.2 1.6 3.2 3.2v74.4c0 1.6-1.6 3.2-3.2 3.2s-3.2-1.6-3.2-3.2v-71.2z"/><g><circle cx="236" cy="80.8" r="4"/><circle cx="265.6" cy="80.8" r="4"/><circle cx="295.2" cy="80.8" r="4"/><circle cx="236" cy="423.2" r="4"/><circle cx="265.6" cy="423.2" r="4"/><circle cx="295.2" cy="423.2" r="4"/></g><g><path d="M104.8 73.6c3.2 2.4 1.6 11.2-4 18.4-5.6 7.2-12.8 11.2-16.8 8-3.2-2.4-1.6-11.2 4-18.4 5.6-6.4 13.6-10.4 16.8-8zm-16 313.6c0 2.4-1.6 4-4 4s-4-1.6-4-4v-272c0-2.4 1.6-4 4-4s4 1.6 4 4v272z"/></g></symbol><symbol id="logo--logo" viewBox="0 0 120 36" xmlns="http://www.w3.org/2000/svg"><defs><style>.ocls-1{fill:#202020}</style></defs><path class="ocls-1" d="M27.42 23.39l.28 1.28-3 6.26H18L30.83 5.07l12.82 25.86H37l-2.92-6 .21-1.49-3.44-7.89zm-2.53-1.64h12l.39 4.48H24.47zM55.52 19a2 2 0 00-1.79-.77 3 3 0 00-1.46.35 2.37 2.37 0 00-1 1A3.29 3.29 0 0051 21.2v9.73h-5.33v-16H51v2.4a5.13 5.13 0 011.89-2.05 5.59 5.59 0 013-.73 5.39 5.39 0 014.35 1.6 6.73 6.73 0 011.35 4.48v10.3h-5.53V21.2a3.77 3.77 0 00-.54-2.2zm10.37-.83a8.06 8.06 0 013.27-2.92 11 11 0 019.36 0 8.19 8.19 0 013.27 2.92A8 8 0 0183 22.59 7.94 7.94 0 0181.79 27a8 8 0 01-3.27 2.92 11 11 0 01-9.36 0A7.92 7.92 0 0165.89 27a8 8 0 01-1.18-4.37 8.11 8.11 0 011.18-4.46zm4.73 6.55A3.8 3.8 0 0072 26.1a3.88 3.88 0 003.74 0 3.65 3.65 0 001.35-1.38 4.2 4.2 0 00.51-2.13 4.31 4.31 0 00-.51-2.16A3.61 3.61 0 0075.71 19a3.68 3.68 0 00-5.09 1.39 4.22 4.22 0 00-.53 2.16 4.1 4.1 0 00.53 2.17zM96 19a2 2 0 00-1.79-.77 3 3 0 00-1.46.35 2.43 2.43 0 00-1 1 3.41 3.41 0 00-.35 1.6v9.73h-5.29v-16h5.28v2.4a5.23 5.23 0 011.9-2.05 5.59 5.59 0 013-.73 5.37 5.37 0 014.34 1.6 6.68 6.68 0 011.37 4.51v10.29h-5.5V21.2A3.77 3.77 0 0096 19z"/></symbol></svg>