<?xml version="1.0" encoding="utf-8"?><svg xmlns="http://www.w3.org/2000/svg" xmlns:xlink="http://www.w3.org/1999/xlink"><symbol viewBox="0 0 16 29" id="arrow-black-left" xmlns="http://www.w3.org/2000/svg"><path d="M1.967 14.192l12.975-12.82a.794.794 0 000-1.136.817.817 0 00-1.15 0L.24 13.627a.794.794 0 000 1.136l13.553 13.385a.823.823 0 00.572.238.798.798 0 00.572-.238.794.794 0 000-1.136l-12.97-12.82z"/></symbol><symbol viewBox="0 0 16 29" id="arrow-black-right" xmlns="http://www.w3.org/2000/svg"><path d="M13.214 14.194L.24 27.014a.794.794 0 000 1.136.818.818 0 001.15 0l13.553-13.39a.794.794 0 000-1.137L1.39.238A.823.823 0 00.817 0a.798.798 0 00-.572.238.794.794 0 000 1.136l12.97 12.82z"/></symbol><symbol viewBox="0 0 16 29" id="arrow-left" xmlns="http://www.w3.org/2000/svg"><path d="M1.967 14.192l12.975-12.82a.794.794 0 000-1.136.817.817 0 00-1.15 0L.24 13.627a.794.794 0 000 1.136l13.553 13.385a.823.823 0 00.572.238.798.798 0 00.572-.238.794.794 0 000-1.136l-12.97-12.82z"/></symbol><symbol viewBox="0 0 17 29" id="arrow-right" xmlns="http://www.w3.org/2000/svg"><path d="M15.894 13.632L2.336.237a.818.818 0 00-1.15 0 .794.794 0 000 1.136l12.98 12.824-12.98 12.825a.794.794 0 000 1.136.823.823 0 00.572.238.798.798 0 00.572-.238l13.558-13.395a.793.793 0 00.006-1.131z"/></symbol><symbol viewBox="0 0 12 8" id="arrow_drop" xmlns="http://www.w3.org/2000/svg"><path fill-rule="evenodd" clip-rule="evenodd" d="M10.6 0L6 4.6 1.4 0 0 1.4l6 6 6-6L10.6 0z"/></symbol><symbol viewBox="0 0 44 29" id="basket" xmlns="http://www.w3.org/2000/svg"><path d="M44 19c0 5.523-4.477 10-10 10s-10-4.477-10-10S28.477 9 34 9s10 4.477 10 10z"/><path d="M33.544 23v-5.962h-.024l-1.841 1.309v-1.075l1.855-1.318h1.08V23h-1.07zM29.999 0l-.929 2.5h-2.41l-4.342 15H5.767L0 3.75h21.015l-.705 2.5H3.759L7.43 15h13.035l4.29-15H30zM10.624 18.75a1.876 1.876 0 10.001 3.751 1.876 1.876 0 00-.001-3.751zM19.249 10l-2.375 8.75a1.875 1.875 0 100 3.75 1.875 1.875 0 000-3.75L19.249 10z"/></symbol><symbol viewBox="0 0 30 23" id="basket2" xmlns="http://www.w3.org/2000/svg"><path d="M30 0l-.929 2.5H26.66l-4.343 15H5.77L0 3.75h21.015l-.705 2.5H3.76L7.431 15h13.035l4.29-15H30zM10.625 18.75a1.876 1.876 0 10.001 3.751 1.876 1.876 0 00-.001-3.751zM19.25 10l-2.375 8.75a1.875 1.875 0 100 3.75 1.875 1.875 0 000-3.75L19.25 10z"/></symbol><symbol viewBox="0 0 30 23" id="chart" xmlns="http://www.w3.org/2000/svg"><path d="M30 0l-.929 2.5H26.66l-4.343 15H5.77L0 3.75h21.015l-.705 2.5H3.76L7.431 15h13.035l4.29-15H30zM10.625 18.75a1.876 1.876 0 10.001 3.751 1.876 1.876 0 00-.001-3.751zM19.25 10l-2.375 8.75a1.875 1.875 0 100 3.75 1.875 1.875 0 000-3.75L19.25 10z"/></symbol><symbol viewBox="0 0 18 17" id="dellivery" xmlns="http://www.w3.org/2000/svg"><path d="M11.17 3.143h5.901v12.021c0 .518-.465.836-.97.836H1.893C1.388 16 1 15.602 1 15.084V3.143h5.823"/><path d="M11.385 3.143h5.632c.038 0 .077-.032.038-.064L14.958 1H3.113L1.016 3.079c-.039.032 0 .064.039.064h5.631"/><path d="M11.714 3.143L10.782 1h-3.4L6.357 3.143m5.357 0v4.286l-2.61-1.506-2.747 1.506V3.143m4.629 8.571H7.122c-.443 0-.765-.438-.765-.925v-.292c0-.536.362-.926.765-.926h3.824c.443 0 .765.439.765.926v.292c.04.536-.322.925-.725.925z"/></symbol><symbol viewBox="0 0 30 30" id="facebook" xmlns="http://www.w3.org/2000/svg"><path d="M17.419 29.805zm.3-.052c-.06.012-.12.022-.18.032.06-.01.12-.02.18-.032zm-1.012.15zm.288-.036zm1.132-.195zm1.013-.252c-.042.013-.085.024-.127.036l.127-.035zm-.306.085l-.14.036.14-.037zm-.401.1l-.148.033.148-.033zm-2.171.342zM30 15c0-8.283-6.717-15-15-15C6.717 0 0 6.717 0 15c0 8.283 6.717 15 15 15l.264-.003V18.32H12.04v-3.756h3.223V11.8c0-3.205 1.956-4.95 4.816-4.95 1.369 0 2.546.103 2.889.148v3.35h-1.972c-1.555 0-1.857.74-1.857 1.824v2.392h3.72l-.485 3.756H19.14v11.1C25.41 27.623 30 21.848 30 15zM15.991 29.967zm-.478.023z"/></symbol><symbol viewBox="0 0 23 21" id="gridbtn" xmlns="http://www.w3.org/2000/svg"><path d="M1 1h21v19H1z"/><path d="M7 6h2v2H7zm0 7h2v2H7zm7-7h2v2h-2zm0 7h2v2h-2z"/></symbol><symbol viewBox="0 0 20 28" id="group" xmlns="http://www.w3.org/2000/svg"><rect x="16" y="15.771" width="4" height="11.726" rx="2"/><rect x="8" y=".528" width="4" height="26.969" rx="2"/><rect y="9.908" width="4" height="17.588" rx="2"/></symbol><symbol viewBox="0 0 24 22" id="heart" xmlns="http://www.w3.org/2000/svg"><path d="M12 8.229c.234-1.12 1.547-6.23 5.382-6.23C19.602 2 22 3.552 22 7.004c0 3.907-3.627 8.47-10 12.629-6.373-4.16-10-8.722-10-12.63C2 3.52 4.369 1.999 6.577 1.999c3.923 0 5.145 5.126 5.423 6.23zM0 7.003C0 11.07 3.06 16.483 12 22c8.94-5.516 12-10.93 12-14.997 0-7.962-9.648-9.028-12-3.737C9.662-1.996 0-1.004 0 7.003z"/></symbol><symbol viewBox="0 0 24 24" id="heartblue" xmlns="http://www.w3.org/2000/svg"><path d="M0 0h24v24H0z"/><path d="M-1200-2347H720V717h-1920z"/><path d="M-225.5-14.5h269v402h-269z"/><path d="M12 4.435C10.011-.964 0-.162 0 8.003 0 12.071 3.06 17.484 12 23c8.94-5.516 12-10.929 12-14.997C24-.115 14-.996 12 4.435z"/></symbol><symbol viewBox="0 0 18 22" id="house" xmlns="http://www.w3.org/2000/svg"><path d="M6.833 13.343a.5.5 0 00-.5.5V19.7a.5.5 0 01-.5.5H1.5a.5.5 0 01-.5-.5V8.087a.5.5 0 01.175-.38l7.5-6.428a.5.5 0 01.65 0l7.5 6.428a.5.5 0 01.175.38V19.7a.5.5 0 01-.5.5h-4.333a.5.5 0 01-.5-.5v-5.857a.5.5 0 00-.5-.5H6.833z"/></symbol><symbol viewBox="0 0 16 18" id="icons-rubl" xmlns="http://www.w3.org/2000/svg"><path d="M2.677 8.918V.395c2.803 0 5.341-.111 7.879.037 2.651.148 4.659 2.594 4.583 5.262-.076 2.594-2.121 4.854-4.772 4.966-1.894.11-3.75.037-5.72.037l-1.97-1.78zm1.97-6.819v6.893c.492.037 1.97 0 2.348 0 1.061 0 2.538.037 3.372-.074a3.372 3.372 0 003.03-3.41c-.038-1.778-1.402-3.297-3.258-3.409-1.78-.074-3.598 0-5.492 0z"/><path d="M8.246 11.104H4.647v-.74h1.818c1.326 0 2.614.036 3.902-.038 2.424-.148 4.356-2.15 4.394-4.632.075-2.557-1.856-4.743-4.243-4.891C8.776.69 7.034.728 5.215.765c-.72 0-1.439.038-2.159.038v8.152H2.3V.061h.379c.87 0 1.704 0 2.537-.037a86.36 86.36 0 015.38.037c2.802.149 5 2.706 4.961 5.633-.076 2.853-2.31 5.188-5.113 5.336-.758.074-1.478.074-2.197.074zm0-1.741H4.61l-.341-.037V1.692H6.39c1.288 0 2.538-.037 3.788.037 2.007.111 3.598 1.779 3.636 3.78.038 1.927-1.477 3.594-3.371 3.78-.493.074-1.25.074-2.197.074zM6.844 8.62h.152c1.59.038 2.69 0 3.333-.037 1.515-.148 2.727-1.482 2.69-3.038a3.047 3.047 0 00-2.917-3.039C8.89 2.433 7.678 2.47 6.39 2.47H5.026v6.151h1.818z"/><path d="M5.329 8.992H.973v1.742h4.356V8.992z"/><path d="M5.67 11.067H.557V8.584H5.67v2.483zm-4.318-.741H4.95v-1H1.353v1zm7.499 2.112H.973v1.742H8.85v-1.742z"/><path d="M9.23 14.55H.594v-2.482H9.23v2.483zm-7.879-.74h7.121v-1.001h-7.12v1z"/><path d="M4.647 7.917h-1.97v9.71h1.97v-9.71z"/><path d="M5.026 17.997H2.3V7.547h2.727v10.45zm-1.97-.741H4.27V8.288H3.056v8.968z"/></symbol><symbol viewBox="0 0 8 10" id="icons-rubl-mini" xmlns="http://www.w3.org/2000/svg"><mask id="qa"><path fill-rule="evenodd" clip-rule="evenodd" d="M3.151 5.764h.95c.384 0 .768 0 1.171-.039C6.768 5.648 7.96 4.437 8 2.955 8.02 1.436 6.848.11 5.353.032a47.32 47.32 0 00-2.868-.02c-.445.02-.89.02-1.354.02H.93v4.424H0v1.288h.93v.52H.02v1.289h.91V9.34h1.454V7.553h2.242v-1.29H2.384v-.5h.767zm-.767-1.308h.343v.019h.707c.849.02 1.434 0 1.778-.02.808-.076 1.454-.769 1.434-1.576 0-.847-.687-1.54-1.555-1.578a22.23 22.23 0 00-1.466-.021l-.514.002h-.727v3.174z"/></mask><path fill-rule="evenodd" clip-rule="evenodd" d="M3.151 5.764h.95c.384 0 .768 0 1.171-.039C6.768 5.648 7.96 4.437 8 2.955 8.02 1.436 6.848.11 5.353.032a47.32 47.32 0 00-2.868-.02c-.445.02-.89.02-1.354.02H.93v4.424H0v1.288h.93v.52H.02v1.289h.91V9.34h1.454V7.553h2.242v-1.29H2.384v-.5h.767zm-.767-1.308h.343v.019h.707c.849.02 1.434 0 1.778-.02.808-.076 1.454-.769 1.434-1.576 0-.847-.687-1.54-1.555-1.578a22.23 22.23 0 00-1.466-.021l-.514.002h-.727v3.174z"/><path d="M5.272 5.725l-.012-.25-.011.001.024.25zM8 2.955l.25.007V2.96L8 2.955zM5.353.032l.013-.25h-.003l-.01.25zM2.485.012l-.005-.25h-.006l.01.25zM.929.033v-.25H.68v.25h.25zm0 4.424v.25h.25v-.25H.93zm-.929 0v-.25h-.25v.25H0zm0 1.288h-.25v.25H0v-.25zm.93 0h.25v-.25H.93v.25zm0 .52v.25h.25v-.25H.93zm-.91 0v-.25h-.25v.25h.25zm0 1.289h-.25v.25h.25v-.25zm.91 0h.25v-.25H.93v.25zm0 1.788H.68v.25h.25v-.25zm1.454 0v.25h.25v-.25h-.25zm0-1.788v-.25h-.25v.25h.25zm2.242 0v.25h.25v-.25h-.25zm0-1.29h.25v-.25h-.25v.25zm-2.242 0h-.25v.25h.25v-.25zm0-.5v-.25h-.25v.25h.25zm.343-1.307h.25v-.25h-.25v.25zm-.343 0h-.25v.25h.25v-.25zm.343.019h-.25v.25h.25v-.25zm.707 0l.006-.25h-.006v.25zm1.778-.02l.014.25h.01l-.024-.25zM6.646 2.88h-.25v.006l.25-.006zM5.091 1.3l-.015.25h.004l.01-.25zm-1.466-.02l-.002-.25.002.25zm-1.241.002v-.25h-.25v.25h.25zM4.1 5.514h-.95v.5h.95v-.5zm0 0v.5-.5zm1.148-.038c-.39.038-.763.038-1.148.038v.5c.382 0 .778 0 1.195-.04l-.047-.498zm2.5-2.527c-.036 1.348-1.123 2.456-2.49 2.527l.026.499c1.624-.084 2.92-1.4 2.965-3.013l-.5-.013zM5.34.282c1.351.07 2.428 1.275 2.41 2.67l.5.007C8.27 1.315 7.005-.133 5.366-.218l-.026.5zM2.49.262C3.476.244 4.4.244 5.343.283l.02-.5a47.567 47.567 0 00-2.883-.02l.01.5zM1.13.283c.464 0 .914 0 1.365-.02l-.022-.5c-.438.02-.877.02-1.343.02v.5zm-.202 0h.202v-.5h-.2v.5zm.25 3.635V.032h-.5v3.885h.5zm0 .539v-.539h-.5v.539h.5zM0 4.706h.93v-.5H0v.5zm.25 1.038V4.456h-.5v1.288h.5zm.68-.25H0v.5h.93v-.5zm.25.77v-.52h-.5v.52h.5zm-1.16.25h.91v-.5H.02v.5zm.25 1.039v-1.29h-.5v1.29h.5zm.66-.25H.02v.5h.91v-.5zm.25 2.038V7.553h-.5V9.34h.5zm1.204-.25H.929v.5h1.455v-.5zm-.25-1.538V9.34h.5V7.553h-.5zm2.492-.25H2.384v.5h2.242v-.5zm-.25-1.04v1.29h.5v-1.29h-.5zm-1.992.25h2.242v-.5H2.384v.5zm-.25-.75v.5h.5v-.5h-.5zm1.017-.25h-.767v.5h.767v-.5zm-.424-1.307h-.343v.5h.343v-.5zm.25.269v-.02h-.5v.02h.5zm.033-.25h-.283v.5h.283v-.5zm.343 0H3.01v.5h.343v-.5zm.081 0h-.08v.5h.08v-.5zm1.764-.019c-.337.019-.916.038-1.758.02l-.011.499c.854.02 1.447 0 1.797-.02l-.028-.499zm1.198-1.321c.017.669-.523 1.257-1.208 1.322l.048.498c.93-.089 1.684-.886 1.66-1.833l-.5.013zM5.08 1.55c.742.033 1.316.622 1.316 1.328h.5c0-.988-.8-1.783-1.794-1.827l-.022.5zm-1.453-.02c.5-.004.976-.007 1.449.02l.03-.498c-.493-.03-.985-.026-1.483-.022l.004.5zm-.516.002l.516-.002-.004-.5-.512.002v.5zm-.727 0h.727v-.5h-.727v.5zm.25 2.385V1.282h-.5v2.635h.5zm-.5 0v.539h.5v-.539h-.5z" mask="url(#qa)"/></symbol><symbol viewBox="0 0 30 30" id="instagram" xmlns="http://www.w3.org/2000/svg"><g clip-path="url(#rclip0)"><path d="M15.005 7.297a7.697 7.697 0 00-7.698 7.698 7.697 7.697 0 007.698 7.697 7.697 7.697 0 007.697-7.697 7.697 7.697 0 00-7.697-7.698zm0 12.694a4.995 4.995 0 01-4.997-4.996 4.995 4.995 0 014.997-4.996A4.995 4.995 0 0120 14.995a4.994 4.994 0 01-4.996 4.996z"/><path d="M21.185.095c-2.76-.128-9.596-.122-12.359 0C6.4.21 4.257.795 2.531 2.522-.354 5.407.015 9.294.015 14.996c0 5.835-.325 9.632 2.516 12.473 2.896 2.895 6.84 2.516 12.474 2.516 5.78 0 7.775.004 9.818-.787 2.78-1.079 4.877-3.563 5.082-8.024.13-2.761.122-9.596 0-12.359-.248-5.266-3.074-8.46-8.72-8.72zm4.369 25.466c-1.892 1.89-4.515 1.722-10.585 1.722-6.25 0-8.757.092-10.585-1.741-2.107-2.097-1.725-5.463-1.725-10.567 0-6.906-.71-11.88 6.222-12.235 1.592-.056 2.061-.075 6.07-.075l.056.038c6.662 0 11.888-.698 12.202 6.232.07 1.582.087 2.057.087 6.06-.001 6.177.116 8.698-1.742 10.566z"/><path d="M23.008 8.792a1.799 1.799 0 100-3.597 1.799 1.799 0 000 3.597z"/></g><defs><clipPath id="rclip0"><path d="M0 0h30v30H0z"/></clipPath></defs></symbol><symbol viewBox="0 0 62 18" id="line-old" xmlns="http://www.w3.org/2000/svg"><path d="M1.594 16.766L60.405 1.234"/></symbol><symbol viewBox="0 0 25 19" id="linebtn" xmlns="http://www.w3.org/2000/svg"><g opacity=".3"><rect x="6" width="19" height="3" rx="1.5"/><rect x="6" y="8" width="19" height="3" rx="1.5"/><rect x="6" y="16" width="19" height="3" rx="1.5"/><rect width="3" height="3" rx="1.5"/><rect y="8" width="3" height="3" rx="1.5"/><rect y="16" width="3" height="3" rx="1.5"/></g></symbol><symbol viewBox="0 0 6 9" id="link-arrow" xmlns="http://www.w3.org/2000/svg"><path d="M.229 7.888a.591.591 0 00-.025.912.809.809 0 001.039.022L5.79 4.96a.61.61 0 00-.025-.942L1.243.178A.809.809 0 00.203.2a.591.591 0 00.024.912l3.486 3.01a.5.5 0 010 .757L.229 7.888z"/></symbol><symbol viewBox="0 0 80 76" id="logo" xmlns="http://www.w3.org/2000/svg"><path d="M.9 70c-.067 0-.1-.033-.1-.1l.04-13.74c0-.053.027-.08.08-.08l3.74-.02c.733-.013 1.4.16 2 .52.613.36 1.1.847 1.46 1.46.36.6.54 1.267.54 2v5.74c0 .773-.187 1.48-.56 2.12a4.253 4.253 0 01-1.5 1.5c-.627.373-1.333.567-2.12.58L.9 70zm2.34-2.46h1.24a1.65 1.65 0 001.24-.52c.347-.347.52-.76.52-1.24v-5.76c0-.427-.16-.793-.48-1.1a1.406 1.406 0 00-1.1-.46l-1.4.02-.02 9.06zM10.314 70c-.054 0-.08-.033-.08-.1l.04-13.74c0-.053.026-.08.08-.08h4.04c.72 0 1.38.18 1.98.54.613.347 1.1.82 1.46 1.42.36.587.54 1.253.54 2 0 .493-.074.94-.22 1.34-.147.387-.32.72-.52 1-.2.267-.38.467-.54.6.72.8 1.08 1.74 1.08 2.82l.02 4.1c0 .067-.034.1-.1.1h-2.26c-.054 0-.08-.02-.08-.06V65.8c0-.48-.174-.893-.52-1.24a1.622 1.622 0 00-1.24-.54h-1.32l-.02 5.88c0 .067-.027.1-.08.1h-2.26zm2.36-8.38h1.72c.413 0 .78-.153 1.1-.46.32-.307.48-.68.48-1.12 0-.427-.16-.793-.48-1.1a1.5 1.5 0 00-1.1-.46h-1.72v3.14zM19.982 70c-.067 0-.1-.033-.1-.1l.02-13.74c0-.053.027-.08.08-.08h2.24c.053 0 .08.027.08.08l.02 13.74c0 .067-.027.1-.08.1h-2.26zm6.34 0c-.054 0-.087-.033-.1-.1l-2.76-13.74c-.014-.053.013-.08.08-.08h2.26c.053 0 .086.027.1.08l1.64 9.16 1.6-9.16c.013-.053.046-.08.1-.08h2.24c.066 0 .093.027.08.08l-2.72 13.74c-.014.067-.047.1-.1.1h-2.42zm6.492 0c-.054 0-.08-.033-.08-.1l.02-13.74c0-.053.026-.08.08-.08h6.42c.053 0 .08.033.08.1v2.24c0 .053-.027.08-.08.08h-4.1v3.12h4.1c.053 0 .08.027.08.08l.02 2.26c0 .053-.027.08-.08.08h-4.12v3.5h4.12c.053 0 .08.033.08.1v2.28c0 .053-.027.08-.08.08h-6.46zm11.367 0c-.054 0-.08-.033-.08-.1l.04-13.74c0-.053.026-.08.08-.08h2.44c.053 0 .1.027.14.08l1.82 2.64 1.82-2.64c.04-.053.086-.08.14-.08h2.46c.053 0 .08.027.08.08l.04 13.74c0 .067-.027.1-.08.1h-2.26c-.054 0-.08-.033-.08-.1l-.02-10.2-2.1 3.04-2.08-3.04-.02 10.2c0 .067-.027.1-.08.1h-2.26zm14.362.2c-.72 0-1.38-.18-1.98-.54a4.373 4.373 0 01-1.42-1.46 3.918 3.918 0 01-.54-2.02l.02-6.34c0-.733.173-1.4.52-2 .36-.6.84-1.08 1.44-1.44a3.74 3.74 0 011.96-.54c.72 0 1.373.18 1.96.54.587.36 1.053.84 1.4 1.44.36.6.54 1.267.54 2l.02 6.34c0 .733-.18 1.407-.54 2.02-.347.6-.82 1.087-1.42 1.46-.587.36-1.24.54-1.96.54zm0-2.42c.4 0 .747-.16 1.04-.48.307-.333.46-.707.46-1.12l-.02-6.34c0-.44-.14-.813-.42-1.12a1.374 1.374 0 00-1.06-.46c-.413 0-.767.153-1.06.46-.293.293-.44.667-.44 1.12v6.34c0 .44.147.82.44 1.14.293.307.647.46 1.06.46zM65.73 70c-.054 0-.08-.033-.08-.1V58.5h-2.6c-.067 0-.1-.033-.1-.1l.02-2.24c0-.053.026-.08.08-.08h7.6c.066 0 .1.027.1.08v2.24c0 .067-.027.1-.08.1h-2.62l.02 11.4c0 .067-.027.1-.08.1h-2.26zm9.258.2c-.72 0-1.38-.18-1.98-.54a4.373 4.373 0 01-1.42-1.46 3.918 3.918 0 01-.54-2.02l.02-6.34c0-.733.174-1.4.52-2 .36-.6.84-1.08 1.44-1.44a3.74 3.74 0 011.96-.54c.72 0 1.374.18 1.96.54.587.36 1.054.84 1.4 1.44.36.6.54 1.267.54 2l.02 6.34c0 .733-.18 1.407-.54 2.02-.346.6-.82 1.087-1.42 1.46-.586.36-1.24.54-1.96.54zm0-2.42c.4 0 .747-.16 1.04-.48.307-.333.46-.707.46-1.12l-.02-6.34c0-.44-.14-.813-.42-1.12a1.374 1.374 0 00-1.06-.46c-.413 0-.766.153-1.06.46-.293.293-.44.667-.44 1.12v6.34c0 .44.147.82.44 1.14.294.307.647.46 1.06.46zM59.044 7.956a2.07 2.07 0 00-2.63-.247c-3.098 2.112-18.636 12.73-20.306 14.4a6.218 6.218 0 000 8.783 6.192 6.192 0 004.392 1.816c1.59 0 3.181-.605 4.392-1.816 1.67-1.67 12.287-17.208 14.399-20.306a2.07 2.07 0 00-.247-2.63zm-17.08 20.008a2.072 2.072 0 01-2.928 0 2.072 2.072 0 010-2.927c.649-.642 5.06-3.788 10.488-7.56-3.773 5.427-6.92 9.838-7.56 10.487z"/><path d="M23.547 36.13l-2.556 1.246a22.25 22.25 0 01-1.395-18.814l2.929 1.405a2.07 2.07 0 001.79-3.733l-2.891-1.387c3.594-5.862 9.812-9.948 17.006-10.611V7.35a2.07 2.07 0 104.14 0V4.234a22.14 22.14 0 017.12 1.875 2.07 2.07 0 001.703-3.773A26.299 26.299 0 0040.5 0c-7.078 0-13.733 2.756-18.738 7.762C16.756 12.767 14 19.422 14 26.5c0 5.23 1.553 10.318 4.49 14.711a2.07 2.07 0 002.629.71l4.244-2.07a2.07 2.07 0 10-1.816-3.722zm41.117-20.523a2.07 2.07 0 10-3.773 1.704 22.181 22.181 0 011.968 9.189c0 3.82-.984 7.55-2.86 10.892l-2.668-1.27a2.07 2.07 0 00-1.78 3.738l4.348 2.07a2.07 2.07 0 002.611-.719C65.448 36.818 67 31.731 67 26.5c0-3.795-.786-7.46-2.336-10.893z"/></symbol><symbol viewBox="0 0 20 20" id="men" xmlns="http://www.w3.org/2000/svg"><path d="M17.353 15.08c-2.866-.661-5.534-1.241-4.242-3.681C17.044 3.972 14.153 0 10 0 5.766 0 2.947 4.124 6.89 11.399c1.33 2.454-1.438 3.034-4.242 3.682-2.56.59-2.656 1.863-2.648 4.085L.004 20h19.992l.003-.808c.01-2.24-.076-3.518-2.646-4.113z"/></symbol><symbol viewBox="0 0 17 17" id="procent" xmlns="http://www.w3.org/2000/svg"><path d="M6.142 1.983c.595.677.892 1.593.892 2.748 0 1.155-.297 2.075-.892 2.758-.595.684-1.391 1.026-2.39 1.026-.997 0-1.793-.342-2.388-1.026C.776 6.806.482 5.886.482 4.731s.294-2.071.882-2.748C1.958 1.299 2.754.958 3.753.958c.998 0 1.794.341 2.39 1.025zm-2.39 4.922c.384 0 .681-.192.893-.574.219-.39.328-.923.328-1.6 0-.684-.11-1.217-.328-1.6-.212-.39-.51-.584-.892-.584-.376 0-.673.195-.892.584-.212.383-.318.916-.318 1.6 0 .677.106 1.21.318 1.6.219.382.516.574.892.574zM3.959 16H1.723l5.732-7.844 5.085-6.952h2.215L9.177 8.843 3.958 16zm11.156-6.347c.595.683.892 1.603.892 2.758s-.297 2.075-.892 2.758c-.595.677-1.39 1.016-2.389 1.016-.998 0-1.794-.339-2.39-1.016-.587-.683-.88-1.603-.88-2.758s.293-2.075.88-2.758c.596-.684 1.392-1.026 2.39-1.026.998 0 1.795.342 2.39 1.026zM11.833 14c.219.39.516.584.892.584s.673-.195.892-.585c.219-.39.328-.922.328-1.6 0-.676-.11-1.21-.328-1.599-.219-.39-.516-.584-.892-.584s-.673.195-.892.584c-.212.39-.318.923-.318 1.6s.106 1.21.318 1.6z"/></symbol><symbol viewBox="0 0 30 30" id="vkontakte" xmlns="http://www.w3.org/2000/svg"><path d="M24.894 16.285c-.485-.613-.346-.885 0-1.433.006-.006 4.01-5.538 4.422-7.415h.003c.205-.684 0-1.187-.991-1.187h-3.28c-.835 0-1.22.431-1.427.914 0 0-1.67 3.997-4.032 6.588-.763.75-1.115.99-1.531.99-.206 0-.524-.24-.524-.925v-6.38c0-.82-.234-1.187-.925-1.187H11.45c-.524 0-.835.383-.835.739 0 .777 1.181.956 1.304 3.144v4.746c0 1.04-.189 1.231-.607 1.231-1.116 0-3.822-4.014-5.426-8.607-.323-.892-.64-1.252-1.48-1.252H1.124C.189 6.251 0 6.682 0 7.165c0 .853 1.115 5.091 5.185 10.691 2.713 3.823 6.532 5.894 10.008 5.894 2.088 0 2.343-.46 2.343-1.251 0-3.653-.189-3.998.858-3.998.485 0 1.32.24 3.27 2.084 2.228 2.186 2.595 3.165 3.842 3.165h3.28c.935 0 1.409-.46 1.136-1.367-.623-1.91-4.838-5.835-5.028-6.098z"/></symbol><symbol viewBox="0 0 30 30" id="youtube" xmlns="http://www.w3.org/2000/svg"><path d="M13.132 17.81l4.88-2.81-4.88-2.81v5.62z"/><path d="M15 0C6.717 0 0 6.717 0 15c0 8.283 6.717 15 15 15 8.283 0 15-6.717 15-15 0-8.283-6.717-15-15-15zm9.373 15.015s0 3.042-.386 4.51a2.349 2.349 0 01-1.652 1.651c-1.467.387-7.335.387-7.335.387s-5.852 0-7.335-.402a2.349 2.349 0 01-1.652-1.652C5.627 18.057 5.627 15 5.627 15s0-3.042.386-4.509a2.396 2.396 0 011.652-1.667C9.132 8.438 15 8.438 15 8.438s5.868 0 7.334.401c.803.216 1.436.85 1.653 1.652.401 1.467.386 4.524.386 4.524z"/></symbol></svg>